<!--?xml version="1.0" standalone="no"?-->
              <svg id="sw-js-blob-svg" viewBox="0 0 100 100" xmlns="http://www.w3.org/2000/svg" version="1.1">
                    <defs> 
                        <linearGradient id="sw-gradient" x1="0" x2="1" y1="1" y2="0">
                            <stop id="stop1" stop-color="rgba(55, 248, 100.9, 1)" offset="0%"></stop>
                            <stop id="stop2" stop-color="rgba(31, 251, 105.679, 1)" offset="100%"></stop>
                        </linearGradient>
                    </defs>
                <path fill="url(#sw-gradient)" d="M24,-29.6C30.9,-22.7,36.3,-15,38.4,-6.3C40.5,2.5,39.4,12.3,34.2,18.3C28.9,24.3,19.7,26.4,10.9,29.4C2.1,32.3,-6.2,36,-14.8,35.2C-23.4,34.4,-32.3,29.1,-35.6,21.5C-38.8,13.8,-36.5,3.9,-34.2,-5.5C-31.8,-14.8,-29.5,-23.6,-23.8,-30.7C-18.1,-37.8,-9.1,-43.1,-0.3,-42.8C8.5,-42.5,17,-36.5,24,-29.6Z" width="100%" height="100%" transform="translate(50 50)" stroke-width="0" style="transition: 0.3s;"></path>
              </svg>